<?xml version="1.0" encoding="utf-8"?><!-- Generator: Adobe Illustrator 19.1.0, SVG Export Plug-In . SVG Version: 6.00 Build 0)  -->
<svg style="enable-background:new -240 494.5 359.3 203;" id="Calque_1" version="1.1"  viewBox="-240 494.5 359.3 203" x="0px"
	 xmlns="http://www.w3.org/2000/svg" y="0px" xml:space="preserve">
<style type="text/css">
	.st0{fill:#E94E1B;}
	.st1{fill:#6B6B6F;}
</style>
<path class="st0" d="M-153.3,576.1c0.1-14.1,11.5-22,23.2-22c13.4,0.2,23.3,8.2,23.5,22.3c0.2,14-10.2,22.1-23.1,22.1
	C-141.8,598.5-153.5,591-153.3,576.1 M-124,576.4c0-6.3-2.2-11.2-6.2-11.3c-3.3,0-5.8,4.9-5.8,11.1c0,6.9,2.7,11.5,6.3,11.5
	C-126.1,587.6-124,582.7-124,576.4 M-101.9,603v-11.1h3.6v-20.2h-3.6v-11h18l1.9,5.2c2.9-4,6.8-6.8,12.1-6.8
	c13.1,0,15.3,9.7,15.3,18.6v14.1h4v11.1h-21.3v-23c0-2.9,0.3-7.9-4.7-7.9c-4.3,0-5.3,4.2-5.3,7.9v12h6.1V603H-101.9z M-3.1,594.4
	c-6.3,5.4-13,7.4-21.8,7.4c-10.5,0-22.3-6.7-22.3-22.9c0-13.9,10-22.1,22.7-22.1c10.1,0,17.8,5.2,20.2,12.3c1,3,1.9,9.5,0.2,14.3
	h-26.6c0.5,2.3,1.6,6.9,8.7,6.9c2.9,0,7.3-0.3,11.8-4.1L-3.1,594.4z M-17.7,574.9c-0.1-3.2-0.8-6.8-6.3-6.8c-5.2,0-6.3,4.6-6.5,6.8
	H-17.7z M4.9,557.9v-7.8l15.6-5v12.8h8v11h-8V584c0,2.9-0.6,6.8,2.7,6.8c1.1,0,3.7-0.8,5.3-1.4v10.8c-2.5,1-8.3,1.6-10.2,1.6
	c-12.7,0-13.1-6.9-13.4-17.8v-15.1H0.3v-11H4.9z M36.7,548v-7.8l15.6-5V548h8v11h-8v15.1c0,2.9-0.6,6.8,2.7,6.8
	c1.1,0,3.7-0.8,5.3-1.4v10.8c-2.5,1-8.3,1.6-10.2,1.6c-12.7,0-13.1-6.9-13.4-17.8V559h-4.6v-11H36.7z M108.7,597.2
	c-6.3,5.4-13,7.4-21.8,7.4c-10.5,0-22.3-6.7-22.3-22.9c0-13.9,10-22.1,22.7-22.1c10.1,0,17.8,5.2,20.2,12.3c1,3,1.9,9.5,0.2,14.3H81
	c0.5,2.3,1.6,6.9,8.7,6.9c2.9,0,7.3-0.3,11.8-4.1L108.7,597.2z M94,577.7c-0.1-3.2-0.8-6.8-6.3-6.8c-5.2,0-6.3,4.6-6.5,6.8H94z
	 M-47.7,529.2c-0.8,0-5.2,5.8-7.1,5.8c-0.7,0-1-1.7-1-3.8c0-2.4,0-4.3,0.4-6.1c0.7-1.2,1.3-2.3,1.9-3.7c0-1.5-2.6-4.1-4.5-4.1
	c-0.7,0-1.2,0.5-1.6,1.4c-0.3-0.2-0.8-0.3-1.4-0.5c-1-0.2-1.9-0.3-2.8-0.3c-3.9,0-7.3,2.4-9.4,5c-1.8,2.2-2.8,4.8-3.2,7.5
	c-1.6,1.8-3.8,5.1-6.1,5.1c-3,0-4.8-1.1-7-2.3c0.2-0.9,0.3-2,0.3-3c0-3.2,0.1-6.5,0.5-9.3c11.4-0.3,13.9-6.4,13.9-9.9
	c0-4.9-3.6-6.2-7.4-6.2c-5.3,0-9.4,4.8-11.7,11.7c-1.5-0.4-2.9-1.4-4.1-1.4c-0.4,0-0.7,0.8-0.7,1.3c0,1,1.7,2.5,3.8,3.6
	c-0.8,3.5-1.3,7.3-1.3,11.2c-0.8-0.1-1.7-0.1-2.7-0.1c-3.6,0-6.2,1.6-6.2,4.8c0,3.1,1.8,5.3,5.6,5.3c3.1,0,5.6-1.3,7.4-3.1
	c2.2,1.3,4.6,2.5,7.3,2.5c3.8,0,6.8-2,8.7-4.4c1,2.9,3.5,4.6,6.9,4.6c4.3,0,6.8-1.9,8.4-4.6c0.5,2.6,1.5,4.4,3.3,4.4
	c4.9,0,10.8-5.3,10.8-9.4C-46.9,529.9-47.3,529.2-47.7,529.2 M-82.3,509.4c1.5,0,2.3,0.8,2.3,2.3c0,2.1-3.5,4.8-8,5.2
	C-87,512.4-85.2,509.4-82.3,509.4 M-99.1,537.4c-0.8,0-1.6-0.4-1.6-1.3c0-0.9,0.8-1.4,1.7-1.4c0.8,0,1.5,0.2,2.4,0.7
	C-96.9,536.6-97.5,537.4-99.1,537.4 M-61.4,530.1c-1.1,4-3.7,5.6-5.8,5.6s-2.7-1.8-2.7-3.6c0-6.3,4.9-10.1,9.4-11
	C-61.1,524.1-61.3,528.2-61.4,530.1"/>
<rect class="st1" height="4.2" width="14.1" x="-42.3" y="627.1"/>
<rect class="st1" height="4.2" width="14.1" x="93.9" y="677.6"/>
<path class="st0" d="M-157.3,571.5l-0.7-9l-18,1.5l-10,0.8l0.7,9l5.1-0.4l0.3,3.5c-0.1,0.3-0.3,0.6-0.5,0.9
	c-1.2,1.3-2.7,2.5-4.3,3.3c-1.9,1-4.1,1.7-6.5,1.9c-4.1,0.3-7.7-0.9-10.5-3.1c2.7-1,5.4-2.5,8.2-4.5l-4.8-6.8
	c-2.9,2-5.8,3.4-8.4,4.2c-0.4-1.2-0.7-2.4-1-3.7c4.4-0.9,8.9-3.1,13-7.1l-5.7-6c-2.2,2.1-4.5,3.5-6.7,4.3
	c1.8-5.8,6.5-10.1,13.1-10.7c2.5-0.2,4.8,0.2,7,0.9c0.8,0.3,1.5,0.6,2.2,1c2.5,1.6,4.5,4.5,5,8.6l2.6-0.2l12.4-1l-2.1-24.9l-12.6,1
	l-1.3,6.2c-1.5-1.2-4.8-6.7-17-5.7c-11,0.9-20.9,10.6-23,24.4c-2.5-0.9-4.2-1.9-4.4-2l-4.4,7c2.2,1.4,5.1,2.7,8.5,3.7v0.1
	c0.1,1.5,0.3,2.9,0.6,4.2c-2.9-0.8-4.7-1.8-4.9-1.9l-2.1,3.5l-2.2,3.5c0.4,0.2,5.1,3,12.1,3.8c5,9.9,14.6,15.2,25.3,14.3
	c6.5-0.5,11.5-3.9,13.1-7.2l3.1,5.1l16.9-1.4l-1.7-21.1H-157.3z"/>
<polygon class="st0" points="-5.8,624.6 -5.9,624.6 -10.1,636.3 -12.2,636.3 -16.5,624.7 -16.5,624.7 -16.2,631.6 -16.2,634.1 
	-14.5,634.4 -14.5,636.3 -21.1,636.3 -21.1,634.4 -19.4,634.1 -19.4,622.8 -21.1,622.4 -21.1,620.5 -19.4,620.5 -15.3,620.5 
	-11.2,632.2 -11.2,632.2 -7.1,620.5 -1.2,620.5 -1.2,622.4 -2.9,622.8 -2.9,634.1 -1.2,634.4 -1.2,636.3 -7.8,636.3 -7.8,634.4 
	-6.1,634.1 -6.1,631.6 "/>
<path class="st1" d="M0,630.4c0-1.8,0.5-3.2,1.5-4.3c1-1.1,2.3-1.7,4.1-1.7c1.7,0,3.1,0.6,4.1,1.7c1,1.1,1.5,2.6,1.5,4.3v0.2
	c0,1.8-0.5,3.2-1.5,4.3c-1,1.1-2.3,1.7-4.1,1.7c-1.7,0-3.1-0.6-4.1-1.7c-1-1.1-1.5-2.6-1.5-4.3V630.4z M3.1,630.6
	c0,1.1,0.2,1.9,0.6,2.6c0.4,0.6,1,1,1.8,1s1.4-0.3,1.8-1c0.4-0.7,0.6-1.5,0.6-2.6v-0.2c0-1-0.2-1.9-0.6-2.6c-0.4-0.7-1-1-1.8-1
	s-1.4,0.3-1.8,1c-0.4,0.7-0.6,1.5-0.6,2.6V630.6z M12.3,634.4l1.5-0.3v-7.3l-1.7-0.3v-1.9h4.6l0.1,1.7c0.4-0.6,0.9-1.1,1.4-1.4
	c0.6-0.3,1.2-0.5,1.9-0.5c1.2,0,2.1,0.4,2.8,1.1c0.7,0.7,1,1.9,1,3.5v5.1l1.5,0.3v1.9h-6.1v-1.9l1.4-0.3V629c0-0.8-0.2-1.3-0.5-1.7
	c-0.3-0.3-0.8-0.5-1.4-0.5c-0.4,0-0.8,0.1-1.1,0.3c-0.3,0.2-0.6,0.4-0.8,0.7v6.3l1.3,0.3v1.9h-6v-1.9H12.3z M26.4,634.4l1.5-0.3
	v-7.3l-1.7-0.3v-1.9h4.6l0.1,1.7c0.4-0.6,0.9-1.1,1.4-1.4c0.6-0.3,1.2-0.5,1.9-0.5c1.2,0,2.1,0.4,2.8,1.1c0.7,0.7,1,1.9,1,3.5v5.1
	l1.5,0.3v1.9h-6.1v-1.9l1.4-0.3V629c0-0.8-0.2-1.3-0.5-1.7c-0.3-0.3-0.8-0.5-1.4-0.5c-0.4,0-0.8,0.1-1.1,0.3
	c-0.3,0.2-0.6,0.4-0.8,0.7v6.3l1.3,0.3v1.9h-6v-1.9H26.4z M48.2,636.3c-0.1-0.2-0.2-0.4-0.2-0.6c-0.1-0.2-0.1-0.4-0.2-0.6
	c-0.4,0.4-0.8,0.8-1.4,1.1c-0.5,0.3-1.2,0.4-1.9,0.4c-1.2,0-2.1-0.3-2.7-0.9c-0.7-0.6-1-1.5-1-2.6c0-1.1,0.4-2,1.3-2.6
	c0.9-0.6,2.2-0.9,3.9-0.9h1.6v-1.1c0-0.6-0.2-1-0.5-1.3s-0.8-0.5-1.4-0.5c-0.4,0-0.7,0-1,0.1c-0.3,0.1-0.5,0.2-0.7,0.3l-0.2,1.3
	h-2.4v-2.6c0.6-0.4,1.2-0.7,2-1c0.8-0.3,1.6-0.4,2.5-0.4c1.5,0,2.6,0.4,3.5,1.1s1.4,1.7,1.4,3v4.9c0,0.2,0,0.4,0,0.5
	c0,0.2,0,0.3,0,0.5l1,0.1v1.9h-3.6V636.3z M45.4,634.2c0.5,0,0.9-0.1,1.3-0.3c0.4-0.2,0.7-0.5,0.9-0.8v-1.8H46
	c-0.7,0-1.2,0.2-1.5,0.5s-0.5,0.7-0.5,1.1c0,0.4,0.1,0.7,0.4,0.9C44.6,634.1,45,634.2,45.4,634.2 M52.8,634.4l1.5-0.3v-7.3l-1.7-0.3
	v-1.9h4.9v9.5l1.5,0.3v1.9h-6.2L52.8,634.4L52.8,634.4z M57.5,621.8h-3.2v-2.4h3.2V621.8z M65.7,636.6c-1.7,0-3.1-0.5-4.1-1.6
	c-1-1.1-1.5-2.5-1.5-4.1v-0.4c0-1.7,0.5-3.2,1.4-4.3c1-1.1,2.2-1.7,3.9-1.7c1.6,0,2.8,0.5,3.7,1.4c0.9,1,1.3,2.3,1.3,3.9v1.7h-7v0.1
	c0.1,0.8,0.3,1.4,0.8,1.9s1.1,0.8,1.9,0.8c0.7,0,1.3-0.1,1.8-0.2c0.5-0.1,1-0.4,1.5-0.7l0.9,2c-0.5,0.4-1.1,0.7-1.9,1
	C67.5,636.4,66.7,636.6,65.7,636.6 M65.5,626.8c-0.6,0-1.1,0.2-1.4,0.7s-0.6,1-0.6,1.8v0.1h3.9v-0.3c0-0.7-0.2-1.2-0.5-1.6
	C66.6,627,66.1,626.8,65.5,626.8"/>
<polygon class="st0" points="-21.1,661 -21.1,659.1 -19.4,658.8 -19.4,647.4 -21.1,647.1 -21.1,645.2 -19.4,645.2 -16.2,645.2 
	-14.5,645.2 -14.5,647.1 -16.2,647.4 -16.2,658.6 -11.8,658.6 -11.6,656.6 -9.2,656.6 -9.2,661 "/>
<path class="st1" d="M-8,655c0-1.8,0.5-3.2,1.5-4.3c1-1.1,2.3-1.7,4.1-1.7c1.7,0,3.1,0.6,4.1,1.7s1.5,2.6,1.5,4.3v0.2
	c0,1.8-0.5,3.2-1.5,4.3c-1,1.1-2.3,1.7-4.1,1.7c-1.7,0-3.1-0.6-4.1-1.7s-1.5-2.6-1.5-4.3V655z M-4.8,655.2c0,1.1,0.2,1.9,0.6,2.6
	c0.4,0.6,1,1,1.8,1s1.4-0.3,1.8-1c0.4-0.7,0.6-1.5,0.6-2.6V655c0-1-0.2-1.9-0.6-2.6c-0.4-0.7-1-1-1.8-1s-1.4,0.3-1.8,1
	c-0.4,0.7-0.6,1.5-0.6,2.6V655.2z M10,658.8c0.6,0,1-0.2,1.4-0.5c0.3-0.3,0.5-0.8,0.5-1.3h2.9v0.1c0,1.2-0.4,2.2-1.3,3
	c-0.9,0.8-2.1,1.2-3.4,1.2c-1.8,0-3.1-0.6-4.1-1.7c-0.9-1.1-1.4-2.5-1.4-4.3V655c0-1.7,0.5-3.2,1.5-4.3c1-1.1,2.4-1.7,4.2-1.7
	c0.9,0,1.8,0.1,2.6,0.4s1.4,0.7,1.9,1.2v3.1h-2.6l-0.5-1.8c-0.2-0.1-0.4-0.3-0.6-0.3c-0.2-0.1-0.5-0.1-0.8-0.1c-0.9,0-1.5,0.3-1.9,1
	S7.8,654,7.8,655v0.3c0,1.1,0.2,1.9,0.5,2.5C8.6,658.5,9.2,658.8,10,658.8 M23.7,661c-0.1-0.2-0.2-0.4-0.2-0.6
	c-0.1-0.2-0.1-0.4-0.2-0.6c-0.4,0.4-0.8,0.8-1.4,1.1c-0.5,0.3-1.2,0.4-1.9,0.4c-1.2,0-2.1-0.3-2.7-0.9c-0.7-0.6-1-1.5-1-2.6
	c0-1.1,0.4-2,1.3-2.6c0.9-0.6,2.2-0.9,3.9-0.9h1.6v-1.2c0-0.6-0.2-1-0.5-1.3s-0.8-0.5-1.4-0.5c-0.4,0-0.7,0-1,0.1
	c-0.3,0.1-0.5,0.2-0.7,0.3l-0.2,1.3H17v-2.6c0.6-0.4,1.2-0.7,2-1c0.8-0.3,1.6-0.4,2.5-0.4c1.5,0,2.6,0.4,3.5,1.1
	c0.9,0.7,1.4,1.7,1.4,3v4.9c0,0.2,0,0.4,0,0.5c0,0.2,0,0.3,0,0.5l1,0.1v1.9H23.7z M21,658.9c0.5,0,0.9-0.1,1.3-0.3
	c0.4-0.2,0.7-0.5,0.9-0.8V656h-1.6c-0.7,0-1.2,0.2-1.5,0.5s-0.5,0.7-0.5,1.1c0,0.4,0.1,0.7,0.4,0.9C20.2,658.8,20.5,658.9,21,658.9"
	/>
<polygon class="st1" points="28.1,645.9 28.1,644 33,644 33,658.8 34.5,659.1 34.5,661 28.3,661 28.3,659.1 29.8,658.8 29.8,646.3 
	"/>
<path class="st1" d="M41.2,661.2c-1.7,0-3.1-0.5-4.1-1.6c-1-1.1-1.5-2.5-1.5-4.1v-0.4c0-1.7,0.5-3.2,1.4-4.3c1-1.1,2.2-1.7,3.9-1.7
	c1.6,0,2.8,0.5,3.7,1.4c0.9,1,1.3,2.3,1.3,3.9v1.7h-7v0.1c0.1,0.8,0.3,1.4,0.8,1.9s1.1,0.8,1.9,0.8c0.7,0,1.3-0.1,1.8-0.2
	c0.5-0.1,1-0.4,1.5-0.7l0.9,2c-0.5,0.4-1.1,0.7-1.9,1C43,661.1,42.1,661.2,41.2,661.2 M40.9,651.5c-0.6,0-1.1,0.2-1.4,0.7
	s-0.6,1-0.6,1.8v0.1h3.9v-0.3c0-0.7-0.2-1.2-0.5-1.6C42,651.7,41.6,651.5,40.9,651.5 M-6.7,683.7l1.5-0.3v-7.3l-1.7-0.3v-1.9H-2v9.5
	l1.5,0.3v1.9h-6.2V683.7z M-2,671.1h-3.2v-2.4H-2V671.1z M5.3,671v2.9h2.1v2.2H5.3v6c0,0.5,0.1,0.8,0.3,1c0.2,0.2,0.4,0.3,0.8,0.3
	c0.2,0,0.4,0,0.6,0c0.2,0,0.3,0,0.5-0.1l0.3,2.3c-0.4,0.1-0.7,0.2-1.1,0.2c-0.3,0.1-0.7,0.1-1.1,0.1c-1.1,0-1.9-0.3-2.5-0.9
	s-0.9-1.6-0.9-2.9v-6H0.5v-2.2h1.7V671H5.3L5.3,671z M8.6,679.6c0-1.8,0.5-3.2,1.5-4.3c1-1.1,2.3-1.7,4.1-1.7c1.7,0,3.1,0.6,4.1,1.7
	c1,1.1,1.5,2.6,1.5,4.3v0.2c0,1.8-0.5,3.2-1.5,4.3c-1,1.1-2.3,1.7-4.1,1.7c-1.7,0-3.1-0.6-4.1-1.7c-1-1.1-1.5-2.6-1.5-4.3V679.6z
	 M11.7,679.9c0,1.1,0.2,1.9,0.6,2.6c0.4,0.6,1,1,1.8,1s1.4-0.3,1.8-1s0.6-1.5,0.6-2.6v-0.2c0-1-0.2-1.9-0.6-2.6c-0.4-0.7-1-1-1.8-1
	s-1.4,0.3-1.8,1c-0.4,0.7-0.6,1.5-0.6,2.6L11.7,679.9L11.7,679.9z M33.1,675.8L32,676l-4.3,11.4c-0.3,0.8-0.8,1.6-1.4,2.1
	c-0.6,0.6-1.4,0.9-2.6,0.9c-0.3,0-0.5,0-0.8-0.1c-0.2,0-0.5-0.1-0.8-0.2l0.4-2.3c0.1,0,0.2,0,0.3,0c0.1,0,0.2,0,0.3,0
	c0.5,0,0.9-0.1,1.2-0.4c0.3-0.3,0.5-0.6,0.7-1l0.4-0.9l-3.7-9.7l-1.1-0.2v-1.9h5.8v1.9l-1.3,0.2l1.6,4.7l0.2,0.8H27l1.9-5.6
	l-1.3-0.2v-1.9h5.8v2.2H33.1z M39.5,685.9c-1.7,0-3.1-0.5-4.1-1.6c-1-1.1-1.5-2.5-1.5-4.1v-0.4c0-1.7,0.5-3.2,1.4-4.3
	c1-1.1,2.2-1.7,3.9-1.7c1.6,0,2.8,0.5,3.7,1.4c0.9,1,1.3,2.3,1.3,3.9v1.7h-7v0.1c0.1,0.8,0.3,1.4,0.8,1.9s1.1,0.8,1.9,0.8
	c0.7,0,1.3-0.1,1.8-0.2c0.5-0.1,1-0.4,1.5-0.7l0.9,2c-0.5,0.4-1.1,0.7-1.9,1C41.4,685.7,40.5,685.9,39.5,685.9 M39.3,676.1
	c-0.6,0-1.1,0.2-1.4,0.7s-0.6,1-0.6,1.8v0.1h3.9v-0.3c0-0.7-0.2-1.2-0.5-1.6C40.4,676.3,39.9,676.1,39.3,676.1 M45.6,683.7l1.5-0.3
	v-7.3l-1.7-0.3v-1.9H50l0.1,1.7c0.4-0.6,0.9-1.1,1.4-1.4c0.6-0.3,1.2-0.5,1.9-0.5c1.2,0,2.1,0.4,2.8,1.1c0.7,0.7,1,1.9,1,3.5v5.1
	l1.5,0.3v1.9h-6.1v-1.9l1.4-0.3v-5.1c0-0.8-0.2-1.3-0.5-1.7c-0.3-0.4-0.8-0.5-1.4-0.5c-0.4,0-0.8,0.1-1.1,0.3
	c-0.3,0.2-0.6,0.4-0.8,0.7v6.3l1.3,0.3v1.9h-6v-1.9H45.6z M59.7,683.7l1.5-0.3v-7.3l-1.7-0.3v-1.9h4.6l0.1,1.7
	c0.4-0.6,0.9-1.1,1.4-1.4c0.6-0.3,1.2-0.5,1.9-0.5c1.2,0,2.1,0.4,2.8,1.1c0.7,0.7,1,1.9,1,3.5v5.1l1.5,0.3v1.9H67v-1.9l1.4-0.3v-5.1
	c0-0.8-0.2-1.3-0.5-1.7c-0.3-0.3-0.8-0.5-1.4-0.5c-0.4,0-0.8,0.1-1.1,0.3c-0.3,0.2-0.6,0.4-0.8,0.7v6.3l1.3,0.3v1.9h-6v-1.9H59.7z
	 M79.6,685.9c-1.7,0-3.1-0.5-4.1-1.6c-1-1.1-1.5-2.5-1.5-4.1v-0.4c0-1.7,0.5-3.2,1.4-4.3c1-1.1,2.2-1.7,3.9-1.7
	c1.6,0,2.8,0.5,3.7,1.4c0.9,1,1.3,2.3,1.3,3.9v1.7h-7v0.1c0.1,0.8,0.3,1.4,0.8,1.9s1.1,0.8,1.9,0.8c0.7,0,1.3-0.1,1.8-0.2
	c0.5-0.1,1-0.4,1.5-0.7l0.9,2c-0.5,0.4-1.1,0.7-1.9,1C81.4,685.7,80.5,685.9,79.6,685.9 M79.3,676.1c-0.6,0-1.1,0.2-1.4,0.7
	s-0.6,1-0.6,1.8v0.1h3.9v-0.3c0-0.7-0.2-1.2-0.5-1.6C80.4,676.3,79.9,676.1,79.3,676.1"/>
<path class="st0" d="M-8.1,675.1h-2.4l-0.3-2.1c-0.3-0.3-0.7-0.6-1.2-0.7c-0.5-0.2-1-0.3-1.7-0.3c-1.4,0-2.4,0.5-3.2,1.5
	c-0.7,1-1.1,2.3-1.1,3.9v0.6c0,1.6,0.4,2.9,1.1,3.9c0.7,1,1.8,1.5,3.1,1.5c0.6,0,1.2-0.1,1.7-0.3c0.5-0.2,0.9-0.4,1.2-0.7l0.3-2.1
	h2.4v3.1c-0.6,0.7-1.5,1.3-2.4,1.8c-1,0.4-2.1,0.7-3.3,0.7c-2.1,0-3.9-0.7-5.2-2.2c-1.4-1.5-2-3.4-2-5.7v-0.5c0-2.3,0.7-4.2,2-5.7
	s3.1-2.2,5.2-2.2c1.2,0,2.3,0.2,3.3,0.7c1,0.4,1.8,1,2.4,1.8L-8.1,675.1L-8.1,675.1z"/>
</svg>
