<?xml version="1.0" encoding="UTF-8" standalone="no"?>
<!-- Created with Inkscape (http://www.inkscape.org/) -->

<svg
   xmlns:dc="http://purl.org/dc/elements/1.1/"
   xmlns:cc="http://creativecommons.org/ns#"
   xmlns:rdf="http://www.w3.org/1999/02/22-rdf-syntax-ns#"
   xmlns:svg="http://www.w3.org/2000/svg"
   xmlns="http://www.w3.org/2000/svg"
   xmlns:xlink="http://www.w3.org/1999/xlink"
   xmlns:sodipodi="http://sodipodi.sourceforge.net/DTD/sodipodi-0.dtd"
   xmlns:inkscape="http://www.inkscape.org/namespaces/inkscape"
   width="192"
   height="192"
   viewBox="0 0 50.799999 50.800001"
   version="1.1"
   id="svg8"
   inkscape:version="0.92.3 (2405546, 2018-03-11)"
   sodipodi:docname="hi_res_icon.svg"
   inkscape:export-filename="/home/pierre/Workspace/lagonette-android/design/playstore/hi_res_icon.png"
   inkscape:export-xdpi="256"
   inkscape:export-ydpi="256">
  <defs
     id="defs2">
    <linearGradient
       inkscape:collect="always"
       id="linearGradient11874">
      <stop
         style="stop-color:#ffffff;stop-opacity:1"
         offset="0"
         id="stop11870" />
      <stop
         style="stop-color:#ffffff;stop-opacity:0"
         offset="1"
         id="stop11872" />
    </linearGradient>
    <radialGradient
       inkscape:collect="always"
       xlink:href="#linearGradient11874"
       id="radialGradient11876"
       cx="1.4566126e-13"
       cy="-2.2074456e-14"
       fx="1.4566126e-13"
       fy="-2.2074456e-14"
       r="25.4"
       gradientUnits="userSpaceOnUse"
       gradientTransform="matrix(0,7.5590551,-7.5590551,0,0,0)" />
    <filter
       inkscape:collect="always"
       style="color-interpolation-filters:sRGB"
       id="filter11882"
       x="-0.24"
       width="1.48"
       y="-0.24"
       height="1.48">
      <feGaussianBlur
         inkscape:collect="always"
         stdDeviation="5.0799999"
         id="feGaussianBlur11884" />
    </filter>
  </defs>
  <sodipodi:namedview
     id="base"
     pagecolor="#ffffff"
     bordercolor="#666666"
     borderopacity="1.0"
     inkscape:pageopacity="0.0"
     inkscape:pageshadow="2"
     inkscape:zoom="3.959798"
     inkscape:cx="85.591576"
     inkscape:cy="103.83746"
     inkscape:document-units="px"
     inkscape:current-layer="layer6"
     showgrid="true"
     units="px"
     showborder="true"
     borderlayer="false"
     inkscape:showpageshadow="true"
     inkscape:pagecheckerboard="false"
     showguides="true"
     inkscape:guide-bbox="true"
     inkscape:window-width="1920"
     inkscape:window-height="1016"
     inkscape:window-x="0"
     inkscape:window-y="27"
     inkscape:window-maximized="1">
    <inkscape:grid
       type="xygrid"
       id="grid4518"
       spacingx="1.0583333"
       spacingy="1.0583333"
       enabled="true"
       visible="true"
       snapvisiblegridlinesonly="true"
       originy="50.8" />
    <sodipodi:guide
       position="25.399999,25.4"
       orientation="1,0"
       id="guide4606"
       inkscape:locked="false" />
    <sodipodi:guide
       position="25.399999,25.4"
       orientation="0,1"
       id="guide4608"
       inkscape:locked="false" />
  </sodipodi:namedview>
  <metadata
     id="metadata5">
    <rdf:RDF>
      <cc:Work
         rdf:about="">
        <dc:format>image/svg+xml</dc:format>
        <dc:type
           rdf:resource="http://purl.org/dc/dcmitype/StillImage" />
        <dc:title></dc:title>
      </cc:Work>
    </rdf:RDF>
  </metadata>
  <g
     inkscape:label="Layer 1"
     inkscape:groupmode="layer"
     id="layer1"
     transform="translate(0,-246.19998)"
     style="display:inline"
     sodipodi:insensitive="true">
    <circle
       style="fill:#e6411c;fill-opacity:1;stroke-width:0.26458332;stroke-opacity:0"
       id="path4520"
       cx="25.4"
       cy="271.59998"
       r="23.283333" />
    <circle
       style="fill:#ffffff;fill-opacity:1;stroke-width:0.27928239;stroke-opacity:0"
       id="path4604"
       cx="25.4"
       cy="271.60001"
       r="20.108334" />
    <path
       inkscape:connector-curvature="0"
       class="st0"
       d="m 39.952491,273.51567 -0.292585,-3.76181 -7.523611,0.62698 -4.179782,0.33439 0.292583,3.76181 2.13169,-0.16721 0.125385,1.46293 c -0.0418,0.12542 -0.125385,0.25078 -0.208989,0.37619 -0.501574,0.54337 -1.128542,1.04494 -1.797306,1.37931 -0.794159,0.418 -1.713713,0.71058 -2.71686,0.79417 -1.713711,0.12543 -3.218432,-0.37617 -4.388772,-1.29574 1.128542,-0.41797 2.257083,-1.04493 3.427422,-1.88089 l -2.006296,-2.84227 c -1.212138,0.83597 -2.424274,1.42115 -3.511018,1.75552 -0.167191,-0.50157 -0.292585,-1.00315 -0.417978,-1.54653 1.839104,-0.37616 3.720007,-1.29572 5.433719,-2.96764 l -2.382478,-2.50787 c -0.919551,0.87776 -1.880902,1.46292 -2.800454,1.79731 0.752362,-2.42427 2.716859,-4.22158 5.475515,-4.47236 1.044946,-0.0836 2.006297,0.0836 2.925849,0.37616 0.334383,0.12544 0.626968,0.25079 0.919554,0.418 1.044945,0.66876 1.880902,1.88089 2.08989,3.59459 l 1.086744,-0.0836 5.182932,-0.41799 -0.877755,-10.40766 -5.266527,0.41798 -0.543372,2.59147 c -0.626967,-0.50157 -2.006296,-2.80046 -7.105631,-2.38249 -4.597763,0.37619 -8.735749,4.43059 -9.613503,10.19869 -1.044945,-0.37619 -1.755509,-0.79416 -1.839105,-0.83597 l -1.8391039,2.92585 c 0.9195519,0.58518 2.1316899,1.12855 3.5528159,1.54653 v 0.0418 c 0.0418,0.62697 0.1254,1.21213 0.250786,1.75551 -1.212129,-0.33447 -1.96449,-0.75244 -2.048085,-0.79425 l -0.877755,1.46293 -0.9195538,1.46293 c 0.1671928,0.0836 2.1316898,1.25394 5.0575398,1.58831 2.089891,4.13799 6.102484,6.35328 10.574852,5.97709 2.716859,-0.20899 4.806752,-1.63011 5.475516,-3.00944 l 1.295734,2.13169 7.063834,-0.58517 -0.710564,-8.81935 z"
       id="path6465"
       style="fill:#e6411c;fill-opacity:1;stroke-width:0.41797835" />
  </g>
  <g
     inkscape:groupmode="layer"
     id="layer2"
     inkscape:label="tints"
     style="display:inline"
     sodipodi:insensitive="true">
    <path
       style="display:inline;opacity:0.2;fill:#3e2723;fill-opacity:1;stroke-width:0.99999994;stroke-opacity:0"
       d="M 8,96 A 87.999996,87.999996 0 0 0 8.1777344,99.560547 87.999998,87.999998 0 0 1 8.0429688,96 Z m 0.1777344,3.560547 a 87.999998,87.999998 0 0 0 0.097656,1.927733 87.999996,87.999996 0 0 1 -0.097656,-1.927733 z m 0.097656,1.927733 A 87.999996,87.999996 0 0 0 96,184 87.999996,87.999996 0 0 0 184,96 h -0.0449 A 87.999998,87.999998 0 0 1 96,183 87.999998,87.999998 0 0 1 8.2753904,101.48828 Z"
       transform="scale(0.26458333)"
       id="circle9683"
       inkscape:connector-curvature="0" />
    <path
       style="display:inline;opacity:0.2;fill:#ffffff;fill-opacity:1;stroke-width:0.99999994;stroke-opacity:0"
       d="M 96,8 A 87.999996,87.999996 0 0 0 8,96 H 8.044922 A 87.999998,87.999998 0 0 1 96,9 87.999998,87.999998 0 0 1 183.72461,90.511719 87.999996,87.999996 0 0 0 96,8 Z m 87.72461,82.511719 a 87.999996,87.999996 0 0 1 0.0977,1.927734 87.999998,87.999998 0 0 0 -0.0977,-1.927734 z m 0.0977,1.927734 A 87.999998,87.999998 0 0 1 183.95703,96 H 184 a 87.999996,87.999996 0 0 0 -0.17773,-3.560547 z"
       transform="scale(0.26458333)"
       id="path9703"
       inkscape:connector-curvature="0" />
  </g>
  <g
     inkscape:groupmode="layer"
     id="layer6"
     inkscape:label="finish"
     sodipodi:insensitive="true"
     style="display:inline">
    <path
       style="opacity:0.2;fill:url(#radialGradient11876);fill-opacity:1;stroke-width:0.99999994;stroke-opacity:0;filter:url(#filter11882)"
       d="M 96,8 A 87.999998,87.999998 0 0 0 8,96 87.999998,87.999998 0 0 0 96,184 87.999998,87.999998 0 0 0 184,96 87.999998,87.999998 0 0 0 96,8 Z"
       transform="scale(0.26458333)"
       id="rect11868"
       inkscape:connector-curvature="0" />
  </g>
</svg>
